<svg width="113" height="30" viewBox="0 0 113 30" fill="none" xmlns="http://www.w3.org/2000/svg">
<path d="M42.9624 30C42.2091 30 41.4329 29.8745 40.634 29.6233C39.8578 29.3951 39.1274 29.0755 38.4425 28.6646C37.7805 28.2765 37.2555 27.8428 36.8674 27.3634L39.1958 24.898C39.8578 25.4916 40.6111 25.9253 41.4558 26.1992C42.3232 26.4731 43.1336 26.5416 43.8869 26.4047C44.6402 26.2677 45.2109 25.8682 45.599 25.2062C45.8501 24.7953 46.0213 24.3388 46.1126 23.8366C46.2039 23.3344 46.2496 22.7637 46.2496 22.1245C44.8799 22.9006 43.5217 23.2316 42.1748 23.1175C40.828 23.0262 39.5953 22.6039 38.4768 21.8506C37.3811 21.0744 36.5022 20.07 35.8402 18.8373C35.201 17.5818 34.87 16.1893 34.8472 14.6599C34.8244 12.8793 35.1211 11.3385 35.7375 10.0373C36.3538 8.73614 37.1984 7.72031 38.2713 6.98983C39.367 6.25935 40.5997 5.85987 41.9694 5.79139C43.3619 5.70008 44.8228 5.99683 46.3523 6.68166V5.89411H49.9819V22.2615C49.9819 24.6127 49.3769 26.4846 48.1671 27.877C46.98 29.2923 45.2451 30 42.9624 30ZM38.4425 14.6599C38.4425 15.71 38.6708 16.6002 39.1274 17.3307C39.6067 18.0384 40.2231 18.5748 40.9764 18.9401C41.7525 19.2825 42.5971 19.4423 43.5102 19.4194C44.4462 19.3966 45.3935 19.1683 46.3523 18.7346V10.2085C44.8685 9.43238 43.5217 9.10138 42.3118 9.21552C41.1248 9.30683 40.1774 9.82045 39.4698 10.7564C38.7849 11.6695 38.4425 12.9706 38.4425 14.6599Z" fill="#C2F531"/>
<path d="M56.1417 23.9689H52.5121V0H56.1417V23.9689Z" fill="#C2F531"/>
<path d="M66.8269 24.4141C65.1833 24.4141 63.7338 24.0602 62.4782 23.3526C61.2456 22.6221 60.2754 21.6177 59.5677 20.3393C58.8829 19.0382 58.5405 17.5316 58.5405 15.8195C58.5405 13.8107 58.8943 12.1328 59.602 10.786C60.3096 9.41636 61.2798 8.38912 62.5125 7.7043C63.768 7.01947 65.2061 6.67706 66.8269 6.67706C68.4476 6.67706 69.8744 7.01947 71.107 7.7043C72.3626 8.38912 73.3441 9.41636 74.0518 10.786C74.7595 12.1328 75.1133 13.8107 75.1133 15.8195C75.1133 17.5316 74.7595 19.0382 74.0518 20.3393C73.3441 21.6177 72.3626 22.6221 71.107 23.3526C69.8744 24.0602 68.4476 24.4141 66.8269 24.4141ZM66.8269 20.9214C67.8541 20.9214 68.7216 20.6818 69.4292 20.2024C70.1369 19.723 70.6733 19.0952 71.0386 18.3191C71.4266 17.543 71.6207 16.7098 71.6207 15.8195C71.6207 14.2216 71.2098 12.8862 70.388 11.8133C69.5662 10.7175 68.3792 10.1697 66.8269 10.1697C65.2974 10.1697 64.1104 10.7061 63.2658 11.779C62.444 12.8519 62.0331 14.1987 62.0331 15.8195C62.0331 16.7326 62.2157 17.5772 62.581 18.3534C62.969 19.1295 63.5169 19.7572 64.2245 20.2366C64.9322 20.6932 65.7996 20.9214 66.8269 20.9214Z" fill="#C2F531"/>
<path d="M77.7459 29.8927V26.2631C78.6133 26.2859 79.378 26.1033 80.04 25.7152C80.702 25.3272 81.1472 24.6994 81.3754 23.832L75.1435 6.84827H79.1155L83.4984 19.586L87.5731 6.84827H91.6136L86.0665 21.9829C85.5871 23.2841 85.1192 24.4255 84.6626 25.4071C84.2061 26.3886 83.681 27.2104 83.0875 27.8724C82.5168 28.5344 81.7977 29.0366 80.9303 29.3791C80.0857 29.7215 79.0242 29.8927 77.7459 29.8927Z" fill="#C2F531"/>
<path d="M97.3231 24.1401C95.6567 24.0717 94.3441 23.5923 93.3853 22.702C92.4266 21.8117 91.9472 20.5562 91.9472 18.9355C91.9472 17.7256 92.2325 16.7098 92.8032 15.888C93.3967 15.0434 94.1957 14.3814 95.2001 13.902C96.2045 13.4226 97.3345 13.1373 98.59 13.0459C99.8683 12.9318 101.181 13.0117 102.528 13.2856V12.1899C102.528 11.5279 102.311 11.0143 101.877 10.6491C101.466 10.2838 100.918 10.0441 100.234 9.92998C99.5716 9.81585 98.8525 9.81585 98.0764 9.92998C97.3231 10.0441 96.604 10.2724 95.9192 10.6148C95.2572 10.9344 94.7207 11.3453 94.3098 11.8475L92.2211 9.58757C93.0201 8.74295 93.9788 8.08095 95.0974 7.60157C96.2388 7.1222 97.4144 6.83685 98.6242 6.74554C99.8569 6.65423 101.01 6.76837 102.083 7.08795C103.178 7.38471 104.103 7.89833 104.856 8.62881C105.609 9.29081 106.032 10.1811 106.123 11.2996C106.214 12.4182 106.26 13.6737 106.26 15.0662V23.9689H102.562V22.3938C101.809 23.033 100.975 23.4895 100.062 23.7635C99.1493 24.0374 98.2362 24.163 97.3231 24.1401ZM102.459 19.4148V15.9565C99.9711 15.7282 98.1449 15.8651 96.9807 16.3674C95.8393 16.8467 95.2686 17.6914 95.2686 18.9012C95.2686 19.6545 95.5197 20.2024 96.0219 20.5448C96.5469 20.8644 97.1861 21.0242 97.9394 21.0242C98.7155 21.0013 99.5031 20.853 100.302 20.579C101.124 20.2823 101.843 19.8942 102.459 19.4148Z" fill="#C2F531"/>
<path d="M112.623 23.9689H108.993V0H112.623V23.9689Z" fill="#C2F531"/>
<path d="M2.1371 1.54715C2.11615 1.55485 2.03765 1.57041 1.96248 1.5816C1.88732 1.59262 1.76433 1.62094 1.68917 1.6442C1.61401 1.66763 1.50817 1.7075 1.45382 1.73268C1.39946 1.75804 1.29362 1.81522 1.21846 1.85998C1.1433 1.90458 1.03048 1.98361 0.967923 2.03537C0.905212 2.08713 0.806971 2.17771 0.749423 2.23664C0.691875 2.29557 0.602288 2.40277 0.550359 2.47481C0.498429 2.54703 0.423875 2.66104 0.384851 2.72836C0.345828 2.79569 0.283877 2.91774 0.247131 2.9994C0.210386 3.08107 0.15633 3.23058 0.126873 3.33165C0.0974156 3.43272 0.0634031 3.57034 0.0512558 3.63766C0.0391085 3.70498 0.0210393 3.85065 0.0110178 3.96116C0.000692595 4.075 -0.00279976 4.23045 0.00281838 4.31964C0.00828467 4.40619 0.023317 4.55186 0.0363753 4.64314C0.0494337 4.73441 0.0869385 4.90368 0.119736 5.01909C0.152686 5.13451 0.217522 5.31147 0.263986 5.41254C0.310297 5.51361 0.379992 5.64738 0.418712 5.70981C0.457432 5.77224 0.530164 5.87821 0.580423 5.94518C0.630683 6.01198 0.723154 6.11725 0.785713 6.1788C0.848423 6.24035 0.950916 6.33076 1.01347 6.37954C1.07619 6.42851 1.19234 6.50562 1.27161 6.55126C1.35087 6.59673 1.47735 6.65775 1.55251 6.68661C1.62767 6.71563 1.7575 6.75725 1.84101 6.77894L1.99285 6.81845C6.77692 6.83891 7.10885 6.84364 7.20861 6.86759C7.27132 6.88281 7.36348 6.90746 7.41359 6.9225C7.4637 6.93754 7.55253 6.97059 7.61099 6.99594C7.66944 7.02147 7.75144 7.06204 7.79319 7.08617C7.83495 7.1103 7.91011 7.15822 7.96022 7.19267C8.01033 7.22694 8.09232 7.29042 8.14243 7.33361C8.19254 7.37697 8.28136 7.46091 8.33982 7.52019C8.39828 7.57964 8.49956 7.70607 8.56501 7.8012C8.6303 7.8965 8.72095 8.04898 8.7665 8.14043C8.8119 8.23189 8.8702 8.36951 8.89587 8.44645C8.92168 8.52339 8.95827 8.65716 8.97741 8.74372C8.99639 8.83028 9.01947 8.9602 9.02858 9.03225C9.03769 9.10446 9.05196 9.30503 9.06062 9.47815C9.07109 9.69201 9.0878 9.85166 9.1127 9.97651C9.13274 10.0774 9.16432 10.2114 9.183 10.2738C9.20152 10.3362 9.24586 10.4583 9.2817 10.5448C9.31753 10.6314 9.38237 10.7652 9.42595 10.8421C9.46952 10.919 9.55395 11.0481 9.61347 11.1289C9.67284 11.2097 9.7729 11.3265 9.83546 11.3884C9.89817 11.4503 10.0075 11.5456 10.0784 11.6005C10.1493 11.6552 10.2656 11.7327 10.3365 11.7726C10.4074 11.8124 10.5304 11.8703 10.6099 11.9009C10.6893 11.9317 10.8156 11.9731 10.8908 11.9931C11.0253 12.0287 11.0686 12.0296 13.5784 12.0406C15.7734 12.0504 16.1463 12.0557 16.2508 12.0786C16.3176 12.0933 16.4132 12.1186 16.4633 12.135C16.5134 12.1515 16.5988 12.183 16.6531 12.2052C16.7075 12.2272 16.8032 12.2749 16.8657 12.3111C16.9284 12.3473 17.0343 12.4183 17.1011 12.4689C17.1679 12.5194 17.2807 12.6192 17.3516 12.6908C17.4225 12.7625 17.5123 12.8635 17.5507 12.9156C17.5892 12.9678 17.66 13.0734 17.708 13.1503C17.756 13.2273 17.8352 13.3846 17.8841 13.5C17.9332 13.6155 17.9907 13.7807 18.0123 13.8673C18.0337 13.9538 18.0618 14.0916 18.0745 14.1733C18.0873 14.2549 18.1038 14.4597 18.1113 14.6279C18.1186 14.7963 18.1356 15.0048 18.1488 15.0913C18.162 15.1779 18.199 15.3391 18.2309 15.4498C18.263 15.5605 18.3113 15.7019 18.3383 15.7645C18.3653 15.8271 18.4119 15.9254 18.4417 15.9831C18.4716 16.0408 18.534 16.1466 18.5805 16.2183C18.6269 16.2898 18.7197 16.4112 18.7865 16.4878C18.8533 16.5644 18.9593 16.671 19.0219 16.7249C19.0846 16.7786 19.1904 16.8597 19.2572 16.905C19.324 16.9503 19.447 17.0197 19.5305 17.0592C19.614 17.0988 19.7644 17.154 19.8646 17.1822C19.9899 17.2173 20.1204 17.2394 20.2822 17.2521C20.4404 17.2647 21.2784 17.2686 22.8407 17.2637C24.8488 17.2574 25.1803 17.2526 25.2853 17.2294C25.3521 17.2147 25.465 17.1846 25.5359 17.1626C25.6068 17.1407 25.7196 17.0975 25.7864 17.0669C25.8532 17.0362 25.966 16.9736 26.0369 16.9276C26.1079 16.8818 26.2138 16.8041 26.2723 16.7553C26.3308 16.7064 26.4323 16.607 26.4979 16.5346C26.5637 16.4621 26.6593 16.3439 26.7105 16.272C26.7618 16.2 26.8467 16.0583 26.8993 15.9572C26.9518 15.856 27.0215 15.6946 27.0541 15.5984C27.0866 15.5022 27.1308 15.3408 27.1521 15.2399C27.1735 15.1391 27.1991 14.954 27.2092 14.829C27.2248 14.6346 27.2237 14.565 27.2022 14.3481C27.1882 14.2086 27.1624 14.0316 27.1448 13.9547C27.1272 13.8778 27.0862 13.7361 27.0538 13.6399C27.0213 13.5438 26.9518 13.3824 26.8993 13.2815C26.8467 13.1806 26.7655 13.0428 26.7187 12.9754C26.6719 12.9081 26.5691 12.7822 26.4903 12.6957C26.4115 12.6091 26.2892 12.4935 26.2185 12.439C26.1479 12.3842 26.0319 12.3054 25.961 12.2634C25.8901 12.2216 25.7568 12.1587 25.6649 12.1237C25.5731 12.0885 25.4432 12.0471 25.3764 12.0315C25.3096 12.0158 25.1661 11.9957 25.0576 11.9869C24.949 11.978 23.8113 11.971 22.5294 11.9712C20.8739 11.9715 20.1657 11.9661 20.0848 11.952C20.0222 11.9411 19.9299 11.9207 19.8798 11.9067C19.8297 11.8925 19.734 11.8607 19.6672 11.8359C19.6004 11.8112 19.4741 11.7484 19.3863 11.6963C19.2985 11.6444 19.1619 11.5468 19.0826 11.4795C19.0033 11.4122 18.8981 11.312 18.8488 11.2571C18.7996 11.202 18.7101 11.086 18.6502 10.9995C18.59 10.9129 18.5167 10.7949 18.4869 10.7372C18.4573 10.6795 18.4093 10.5772 18.3805 10.5099C18.3516 10.4425 18.3106 10.3283 18.2895 10.2563C18.2683 10.1841 18.2435 10.0898 18.2346 10.0465C18.2256 10.0031 18.2107 9.92441 18.2015 9.8716C18.1924 9.81879 18.1754 9.60615 18.1637 9.39946C18.1508 9.16742 18.1301 8.95653 18.1099 8.84864C18.0918 8.75246 18.0565 8.60697 18.0314 8.52514C18.0064 8.4433 17.955 8.30568 17.9174 8.21912C17.8797 8.13257 17.8093 7.99495 17.761 7.91311C17.7125 7.83127 17.6126 7.69051 17.5388 7.6001C17.4652 7.5097 17.3501 7.38694 17.2833 7.32731C17.2165 7.26768 17.1037 7.17885 17.0327 7.13006C16.9618 7.0811 16.8455 7.01256 16.7746 6.97776C16.7037 6.94278 16.5841 6.894 16.5089 6.86934C16.4337 6.84451 16.3176 6.81233 16.2508 6.79765C16.1461 6.77456 15.7757 6.76932 13.5859 6.75935C11.2616 6.74886 11.0315 6.74519 10.9135 6.71773C10.8426 6.70112 10.7161 6.66125 10.6326 6.62925C10.5491 6.59725 10.4296 6.54164 10.3669 6.5058C10.3043 6.46995 10.1882 6.39056 10.1088 6.32936C10.0294 6.26798 9.91548 6.16848 9.85535 6.10815C9.79538 6.04765 9.70093 5.93539 9.64551 5.85845C9.59009 5.78151 9.51508 5.66732 9.47894 5.60489C9.44265 5.54247 9.38556 5.43213 9.35185 5.36008C9.31814 5.28786 9.27031 5.16213 9.24571 5.0803C9.22111 4.99846 9.18922 4.87658 9.1751 4.80926C9.16083 4.74193 9.13988 4.60432 9.12818 4.50324C9.11664 4.40217 9.10693 4.24881 9.10662 4.16226C9.10632 4.0757 9.09615 3.92619 9.08415 3.83001C9.07216 3.73384 9.04786 3.5922 9.0301 3.51526C9.01248 3.43832 8.97133 3.29668 8.93853 3.2005C8.90574 3.10432 8.83847 2.94695 8.78897 2.85077C8.73962 2.75459 8.6552 2.61295 8.60145 2.53601C8.54769 2.45907 8.44642 2.33422 8.37627 2.25868C8.30612 2.18314 8.17022 2.0609 8.0741 1.98729C7.97404 1.91035 7.82812 1.81819 7.73246 1.77133C7.64059 1.72639 7.5006 1.66973 7.42118 1.64525C7.34177 1.62094 7.20511 1.5872 7.1175 1.57058C6.97143 1.54278 6.75733 1.53981 4.56656 1.53666C3.25116 1.53474 2.1579 1.53946 2.1371 1.54715ZM2.03081 22.5512C1.96825 22.5593 1.86576 22.5789 1.80305 22.5946C1.74049 22.6103 1.62767 22.6467 1.55251 22.6756C1.47735 22.7042 1.34069 22.7721 1.24883 22.8263C1.15697 22.8803 1.03063 22.9672 0.967923 23.0192C0.905364 23.0713 0.813803 23.154 0.764607 23.2031C0.71541 23.2523 0.627646 23.3554 0.569642 23.4324C0.511639 23.5093 0.434504 23.6233 0.398213 23.6859C0.362075 23.7485 0.297998 23.8744 0.255938 23.9657C0.21403 24.057 0.152686 24.2263 0.119888 24.3417C0.0869385 24.4571 0.0479153 24.6302 0.0331867 24.7264C0.0154212 24.8425 0.00631073 24.9923 0.00600704 25.1723C0.0058552 25.3573 0.0143583 25.4988 0.032883 25.6182C0.0477634 25.7144 0.0869385 25.8875 0.119888 26.0029C0.152686 26.1183 0.218737 26.2979 0.266263 26.4021C0.313941 26.5063 0.396999 26.6597 0.450902 26.7431C0.504806 26.8265 0.611247 26.9655 0.687471 27.0521C0.763696 27.1386 0.880158 27.2542 0.946361 27.3088C1.01241 27.3635 1.13161 27.4478 1.21087 27.4961C1.29013 27.5445 1.39946 27.6043 1.45382 27.629C1.50817 27.6536 1.61401 27.693 1.68917 27.7162C1.76433 27.7396 1.90099 27.7729 1.99285 27.79C2.14849 27.8194 2.3228 27.8215 4.55138 27.8215C6.76128 27.8215 6.95564 27.8192 7.10991 27.7907C7.20177 27.7737 7.33843 27.7405 7.41359 27.7167C7.48875 27.693 7.58791 27.6569 7.63376 27.6367C7.67962 27.6165 7.77877 27.5643 7.85393 27.5207C7.92909 27.477 8.04115 27.4009 8.1031 27.3516C8.1649 27.3023 8.26573 27.2128 8.32707 27.1526C8.38841 27.0925 8.49364 26.9666 8.56121 26.8728C8.62863 26.7791 8.71669 26.6394 8.75678 26.5625C8.79702 26.4855 8.85198 26.3715 8.87901 26.3089C8.90604 26.2463 8.95083 26.1165 8.97862 26.0204C9.00641 25.9242 9.0389 25.7904 9.05105 25.7231C9.0632 25.6558 9.08172 25.5063 9.09235 25.3909C9.10738 25.2263 9.10769 25.1357 9.09372 24.9712C9.08385 24.8558 9.06532 24.7022 9.05241 24.6302C9.03966 24.5582 9.00641 24.4204 8.97862 24.3242C8.95083 24.228 8.90346 24.0923 8.87309 24.0225C8.84288 23.9528 8.79003 23.8426 8.75572 23.7777C8.72125 23.7129 8.64108 23.5854 8.5773 23.4948C8.51353 23.404 8.40314 23.2713 8.33223 23.2C8.26132 23.1286 8.1485 23.0283 8.08169 22.977C8.01488 22.9258 7.8884 22.8445 7.80079 22.7962C7.71317 22.7481 7.58669 22.6883 7.51988 22.6635C7.45307 22.6387 7.35058 22.607 7.29212 22.5934C7.23366 22.5796 7.12433 22.5601 7.04917 22.5502C6.96004 22.5385 6.08225 22.5329 4.5286 22.5343C3.21745 22.5353 2.09337 22.543 2.03081 22.5512ZM1.9473 12.0499C1.87214 12.0634 1.75249 12.0934 1.68158 12.1167C1.61067 12.1399 1.49785 12.1831 1.43104 12.2127C1.36423 12.2422 1.24807 12.3068 1.17291 12.3561C1.09775 12.4054 0.985081 12.4893 0.92237 12.5425C0.859811 12.5956 0.74016 12.7189 0.656648 12.8163C0.573135 12.9139 0.461228 13.0681 0.408083 13.1594C0.354939 13.2505 0.278714 13.3998 0.238932 13.4913C0.199149 13.5826 0.142057 13.7478 0.111992 13.8585C0.0819278 13.9692 0.0476116 14.1266 0.0354643 14.2082C0.0234688 14.2899 0.00889203 14.4315 0.00312206 14.523C-0.00310344 14.6209 0.000237072 14.7717 0.010866 14.8902C0.0208875 15.0009 0.0383493 15.1424 0.0495855 15.205C0.0608218 15.2676 0.0883051 15.3856 0.110474 15.4673C0.132643 15.5489 0.183662 15.6946 0.223748 15.7908C0.263834 15.887 0.337629 16.0365 0.387736 16.123C0.437844 16.2096 0.522116 16.336 0.575261 16.4042C0.628405 16.4722 0.719662 16.5773 0.778121 16.6378C0.83658 16.6983 0.945906 16.795 1.02107 16.8527C1.09623 16.9104 1.21922 16.9916 1.29438 17.0332C1.36954 17.0748 1.49253 17.132 1.5677 17.1605C1.64286 17.189 1.75568 17.2247 1.81823 17.2397C1.88095 17.2546 2.00728 17.275 2.09914 17.2852C2.20649 17.2969 3.08262 17.3034 4.55138 17.3034C6.02014 17.3034 6.89627 17.2969 7.00362 17.2852C7.09548 17.275 7.22197 17.2546 7.28453 17.2397C7.34724 17.2247 7.4599 17.189 7.53506 17.1605C7.61023 17.132 7.73322 17.0748 7.80838 17.0332C7.88354 16.9916 8.00653 16.9104 8.08169 16.8527C8.15686 16.795 8.26618 16.6983 8.32464 16.6378C8.3831 16.5773 8.4742 16.4722 8.52704 16.4042C8.58004 16.336 8.65581 16.2253 8.69559 16.158C8.73537 16.0907 8.79595 15.9765 8.83027 15.9044C8.86444 15.8322 8.91743 15.6984 8.9478 15.6072C8.97832 15.5157 9.01901 15.3624 9.03845 15.2662C9.05788 15.17 9.08187 15.0009 9.0919 14.8902C9.10252 14.7718 9.10571 14.6208 9.09964 14.523C9.09387 14.4315 9.07929 14.2899 9.0673 14.2082C9.05515 14.1266 9.02083 13.9692 8.99092 13.8585C8.96101 13.7478 8.90225 13.5787 8.86034 13.4826C8.81843 13.3864 8.75632 13.2605 8.72246 13.2028C8.6886 13.1451 8.6221 13.0428 8.57472 12.9754C8.5272 12.9081 8.44459 12.8058 8.39115 12.7481C8.3377 12.6904 8.25297 12.6068 8.20301 12.5626C8.15291 12.5182 8.06423 12.4481 8.00577 12.4068C7.94731 12.3653 7.84482 12.3024 7.77801 12.2669C7.7112 12.2314 7.60187 12.1814 7.53506 12.1559C7.46825 12.1303 7.34876 12.092 7.26934 12.0709L7.12509 12.0324C2.50592 12.0259 2.06103 12.0294 1.9473 12.0499ZM11.1641 17.2803C11.1307 17.2838 11.0315 17.302 10.9439 17.3207C10.8563 17.3394 10.7127 17.3831 10.625 17.4181C10.5374 17.4529 10.4074 17.5158 10.3365 17.558C10.2656 17.6001 10.1584 17.6721 10.0986 17.7181C10.0388 17.7641 9.93021 17.8607 9.85748 17.9329C9.7846 18.0049 9.68256 18.1229 9.63048 18.1952C9.57855 18.2672 9.50369 18.3814 9.46436 18.4487C9.42504 18.516 9.35929 18.6498 9.31844 18.746C9.2776 18.8422 9.22066 19.0034 9.19211 19.1045C9.16356 19.2054 9.12818 19.3668 9.1133 19.4629C9.09554 19.5792 9.08643 19.7286 9.08613 19.9088C9.08597 20.0939 9.09448 20.2353 9.113 20.3547C9.12788 20.4509 9.16706 20.624 9.20001 20.7395C9.2328 20.8549 9.29885 21.0344 9.34638 21.1387C9.39406 21.2429 9.47712 21.3962 9.53102 21.4797C9.58492 21.5631 9.69137 21.7021 9.76759 21.7886C9.84381 21.8752 9.96028 21.9908 10.0265 22.0453C10.0925 22.1001 10.2116 22.1844 10.291 22.2326C10.3704 22.2811 10.4796 22.3409 10.5339 22.3655C10.5883 22.3902 10.6941 22.4299 10.7693 22.4537C10.8444 22.4774 10.9811 22.5086 11.073 22.5227C11.2142 22.5446 11.6073 22.5486 13.6201 22.549C15.1848 22.5491 16.0509 22.543 16.1483 22.5309C16.2297 22.5208 16.3545 22.4968 16.4254 22.4776C16.4963 22.4584 16.6058 22.4225 16.6683 22.3977C16.731 22.373 16.8574 22.3087 16.9492 22.2547C17.0411 22.2006 17.1676 22.1141 17.2301 22.0623C17.2929 22.0104 17.3919 21.9191 17.4503 21.8593C17.5088 21.7993 17.6088 21.6764 17.6726 21.586C17.7364 21.4954 17.8166 21.3683 17.851 21.3034C17.8853 21.2385 17.9382 21.1284 17.9684 21.0586C17.9988 20.9888 18.0461 20.8531 18.0739 20.7569C18.1017 20.6608 18.1342 20.527 18.1464 20.4597C18.1585 20.3923 18.177 20.2428 18.1877 20.1274C18.2027 19.9629 18.203 19.8723 18.189 19.7078C18.1791 19.5923 18.1614 19.4428 18.1494 19.3755C18.1374 19.3082 18.1095 19.1861 18.0874 19.1045C18.0654 19.0226 18.0109 18.8693 17.9664 18.7635C17.9219 18.6577 17.8533 18.516 17.814 18.4487C17.7745 18.3814 17.6971 18.2639 17.6418 18.1876C17.5867 18.1114 17.4896 17.9974 17.4262 17.9341C17.3628 17.871 17.2535 17.775 17.1832 17.7209C17.1131 17.6671 17.0009 17.5912 16.934 17.5524C16.8672 17.5137 16.7442 17.4544 16.6607 17.4207C16.5772 17.3869 16.4337 17.341 16.3419 17.3184L16.1748 17.2773C12.3386 17.2745 11.1975 17.2768 11.1641 17.2803Z" fill="#C2F531"/>
</svg>
